<?xml version="1.0" encoding="UTF-8"?><svg id="Layer_1" xmlns="http://www.w3.org/2000/svg" viewBox="0 0 100 100"><g id="freepik--Character--inject-244"><path d="M62.9,93.79h-21.34c-.18-.69-.34-1.36-.52-2.03-.19-.77-.39-1.51-.57-2.24-.04-.16-.08-.32-.12-.48l-.42-1.63c-.08-.32-.16-.63-.24-.95s-.16-.63-.24-.94c-.02-.08-.04-.16-.06-.24s-.04-.18-.06-.26-.05-.21-.08-.32h0c-.03-.11-.06-.22-.08-.33-.05-.21-.11-.42-.15-.6l-.22-.86c-.03-.12-.06-.24-.09-.36-.05-.19-.1-.38-.14-.57-.03-.12-.06-.24-.09-.36-.13-.49-.25-.95-.35-1.38-.03-.11-.06-.22-.09-.33-.05-.19-.09-.37-.14-.54-.03-.11-.06-.21-.08-.32-.1-.37-.18-.7-.26-1-.02-.08-.04-.15-.06-.23-.05-.19-.09-.37-.13-.52-.02-.06-.03-.12-.05-.18s-.03-.12-.04-.17-.02-.08-.03-.11-.03-.1-.04-.15,0-.05,0-.06l-.05-.19h20.77s.68,2.36,1.78,6.16c.22.77.46,1.61.72,2.5.73,2.53,1.58,5.49,2.5,8.69h-.02Z" fill="#37474f"/><path d="M45.05,93.79h-.53c-.79-3.27-1.56-6.54-2.3-9.82-.18-.8-.35-1.59-.53-2.4-.02-.08-.03-.15-.05-.22,0-.02,0-.03.02-.04.02,0,.03,0,.04.02,0,.03,0,.05.02.07.24.86.48,1.72.71,2.58.9,3.26,1.77,6.53,2.61,9.81h0Z" fill="#263238"/><path d="M57.23,76.44l-.92,4.59-.75,3.76-1.28,6.41-.13.66-.22,1.09-.17.84h-12.21c-.17-.69-.35-1.37-.51-2.03-.19-.77-.39-1.51-.57-2.24-.04-.16-.08-.32-.12-.48l-.42-1.63c-.08-.32-.16-.63-.24-.95s-.16-.63-.24-.94c-.02-.08-.04-.16-.06-.24s-.04-.18-.06-.26-.05-.21-.08-.32h0c-.03-.11-.06-.22-.08-.33-.05-.21-.11-.42-.15-.6l-.22-.86c-.03-.13-.06-.24-.09-.36-.05-.19-.1-.38-.14-.57-.03-.12-.06-.24-.09-.36-.13-.49-.25-.95-.35-1.38-.03-.11-.06-.22-.09-.33-.05-.19-.09-.37-.14-.54-.03-.11-.06-.21-.08-.32-.1-.37-.18-.7-.26-1-.02-.08-.04-.15-.06-.23-.05-.19-.09-.37-.13-.52-.02-.06-.03-.12-.05-.18s-.03-.12-.04-.17-.02-.08-.03-.11-.03-.1-.04-.15,0-.05,0-.06l-.05-.19h20.1-.02Z" fill="#263238"/><path d="M57.24,76.43h0c0,.11-.09,1.35-.29,3.24-.06.55-.12,1.16-.21,1.81-.12,1.02-.27,2.15-.46,3.34-.32,2.09-.73,4.36-1.28,6.58-.19.8-.4,1.59-.63,2.37h-27.36s-.34-2.09-.3-2.71c.26-3.34,2.21-14.63,2.21-14.63h28.32Z" fill="#37474f"/><path d="M57.18,78.89c-.03.96-.07,1.92-.13,2.87-.06,1.05-.16,2.07-.29,3.1,0,.04,0,.08,0,.11-.13.97-.27,1.93-.43,2.9-.15.9-.27,1.86-.66,2.7-.15.32-.36.6-.63.84-.24.22-.54.37-.86.45-.05.01-.11.02-.16.03h-.05s.03.03.03.06c0,.32,0,.65-.04.97v.04c-.03.28-.08.56-.14.84h-.47c.08-.32.15-.62.23-.93s.18-.61.26-.93c0-.01,0-.02.02-.03-.6.03-1.15-.32-1.39-.87-.15-.42-.08-.84-.02-1.25.08-.55.17-1.1.25-1.65.16-1.01.36-2,.54-3.01.03-.15.05-.31.08-.46.36-2.04.74-4.08,1.19-6.1.02-.08.04-.17.05-.25s.1-.04.1.01c0,.14-.03.27-.04.41-.08.78-.17,1.55-.28,2.32-.13.91-.22,1.82-.35,2.72-.04.31-.09.62-.13.93-.21,1.49-.42,2.98-.68,4.46-.12.69-.55,1.93.44,2.14.23.05.47.02.67-.08.44-.26.77-.68.92-1.16.28-.79.38-1.66.53-2.48.16-.91.3-1.82.43-2.73h0c.16-1.14.33-2.28.51-3.41.09-.58.18-1.16.27-1.74.04-.27.09-.54.13-.8.03-.05.11-.04.11.02v-.04Z" fill="#263238"/><path d="M33.46,86.02c1.12-.01,2.23-.16,3.31-.45.5-.13.99-.29,1.48-.45.48-.13.94-.36,1.34-.67.75-.65,1.1-1.67,1.43-2.58.36-1.02.65-2.07.87-3.14,0-.05.09-.03.09.01.03,1.2-.13,2.4-.45,3.55-.27.98-.63,2.07-1.42,2.76-.84.72-1.96.98-3.03,1.11-1.2.14-2.41.12-3.6-.05-.03,0-.05-.04-.04-.07,0-.02.02-.03.04-.04l-.02.02Z" fill="#263238"/><path d="M31.6,78.78c-.06,1.5-1.61,9.33-1.73,10.83-.07.96.3,4.18.3,4.18h-.38s-.29-2.86-.25-4.18c.04-1.5,1.81-9.32,1.93-10.82,0-.04.02-.07.06-.07s.07.02.07.06h0Z" fill="#263238"/><path d="M53.67,45.09c10.31,9.29,19.86,19.46,20.61,24.67,1.05,7.19-3.39,9.18-5.37,9.2-5.4.05-15.2-21.81-18.6-30.16-3.31-8.11,1.1-5.75,3.36-3.71Z" fill="#f7a9a0"/><path d="M69.22,59.97l-11.46,6.23s-7.13-13.17-8.77-19.26.81-5.92,6.2-1.18,14.02,14.21,14.02,14.21h0Z" fill="#c7c7c7"/><path d="M69.22,59.97l-11.46,6.23s-7.13-13.17-8.77-19.26.81-5.92,6.2-1.18,14.02,14.21,14.02,14.21h0Z" fill="#5a9352"/><path d="M49,46.93c1.64,6.1,8.77,19.27,8.77,19.27l10.44-5.68-19.22-18.06c-.64.49-.67,1.94.01,4.47Z" isolation="isolate" opacity=".1"/><path d="M66.87,58.21c-4.42,2.99-8.7,4.93-9.56,5.44-.04.02-.08-.05-.03-.07.87-.44,5.57-3.37,9.56-5.44.05-.03.09.04.04.07h-.01Z" fill="#263238"/><path d="M60.35,83.38l-33.57.09s2.93-25.25,15.26-40.17c2.85-3.45,7.45-1.58,9.38.26,4.91,4.66,9.01,39.69,8.92,39.82h0Z" fill="#5a9352"/><path d="M49.01,42.02c-1.43,1.05-2.81,2.16-4.21,3.24-.72.56-1.42,1.15-2.17,1.66-.6.41-1.29.74-2.04.7-.49-.04-.96-.22-1.34-.54l.08-.12c.16.13.33.23.51.32.74.34,1.55.17,2.24-.21.76-.42,1.44-1.01,2.12-1.54.75-.58,1.5-1.17,2.25-1.75.78-.6,1.55-1.25,2.35-1.84.07.03.14.06.2.08h.01ZM44.04,59.31c.74-1.06,1.1-2.49.64-3.73-.42-1.11-1.42-1.85-2.55-2.12-1.18-.28-2.42-.13-3.5.42-1.41.72-2.44,1.99-3.71,2.91-.36.26-.74.48-1.15.66-.04.09-.07.18-.11.26,1.37-.52,2.38-1.61,3.48-2.54.57-.52,1.22-.95,1.92-1.27.6-.24,1.24-.37,1.88-.37,1.23,0,2.54.45,3.24,1.51.79,1.2.56,2.76-.16,3.93-1.84,2.97-5.9,2.79-8.94,2.84-1.04,0-2.08.1-3.11.29-.03.08-.06.16-.09.24,1.17-.21,2.35-.32,3.54-.31,2.95-.04,6.71,0,8.61-2.72h0ZM44.79,51.78c2.64.3,5.31-.32,7.55-1.76.6-.38,1.16-.82,1.67-1.3l-.08-.21c-.54.52-1.13.98-1.77,1.38-2.32,1.47-5.09,2.04-7.8,1.61-2.23-.38-4.23-1.75-6.4-2.36l-.13.21c.94.29,1.85.65,2.74,1.08,1.36.6,2.73,1.17,4.21,1.35h.01ZM42.3,72.15c.9-.9,1.44-2.09,1.52-3.36.06-1.16-.3-2.39-1.23-3.15-1.06-.86-2.51-.9-3.76-.5-1.45.47-2.57,1.46-3.55,2.6-1.07,1.23-2,2.63-3.31,3.64-.88.68-2,1.25-3.14,1.32-.02.06-.03.13-.05.21.58-.03,1.15-.17,1.69-.4,1.43-.6,2.51-1.67,3.49-2.85,1.03-1.23,1.99-2.6,3.33-3.52,1.17-.8,2.74-1.33,4.15-.88,1.31.42,2.07,1.63,2.16,2.96.08,1.33-.39,2.64-1.3,3.61-1.05,1.14-2.46,1.84-3.89,2.37-1.66.59-3.36,1.09-5.08,1.47-1.83.43-4.03.8-5.57,1.97-.02.11-.04.22-.06.33,1.54-1.29,3.89-1.67,5.8-2.12,1.72-.38,3.41-.87,5.07-1.47,1.37-.52,2.72-1.19,3.75-2.24h-.02ZM40.14,77.7c-1.48-.1-2.74.84-3.57,1.96-.87,1.18-1.38,2.57-2.18,3.79h.24c.33-.51.61-1.06.88-1.58.71-1.38,1.49-2.91,2.95-3.62.69-.36,1.48-.45,2.23-.25.68.22,1.22.73,1.49,1.39.56,1.27.35,2.69.42,4.04h.21c-.06-1.1.05-2.21-.19-3.3-.27-1.26-1.11-2.32-2.48-2.41h0v-.02ZM55.36,82.54c-.5-1.37-.51-2.85-.44-4.28.17-3.59.87-7.22.31-10.81-.43-2.75-1.61-5.54-3.94-7.21-1.18-.84-2.81-1.39-4.16-.59-1.14.68-1.74,2.04-1.76,3.33-.02,1.67.76,3.23,1.58,4.64s1.74,2.72,2.55,4.11,1.51,2.83,1.81,4.39c.28,1.46.23,2.96-.14,4.4-.25,1.01-.65,1.98-1.19,2.87h.24c.11-.19.21-.38.31-.57,1.33-2.59,1.53-5.62.54-8.36-1.1-3.04-3.32-5.48-4.69-8.38-.7-1.48-1.15-3.25-.42-4.81.28-.65.77-1.18,1.38-1.53.74-.36,1.59-.4,2.36-.11,1.45.47,2.65,1.64,3.48,2.88.79,1.23,1.35,2.59,1.64,4.02.77,3.49.16,7.08-.09,10.59-.11,1.52-.21,3.06.12,4.56.12.59.33,1.17.63,1.7h.27c-.17-.27-.31-.55-.41-.85h.02ZM51.72,56.66c.7,1.42,2.12,2.19,3.53,2.77l1.57.63c0-.07-.03-.14-.04-.21-.82-.35-1.66-.66-2.45-1.06-1.36-.68-2.77-1.92-2.75-3.57.02-1.52,1.42-2.6,2.81-2.88.22-.04.45-.07.67-.08-.02-.06-.03-.12-.05-.18-.95.04-1.86.39-2.58,1-1.04.88-1.33,2.37-.7,3.58h0Z" fill="#fff"/><path d="M39.68,44.43c-9.77,7.5-19.96,20.24-20.12,27.59-.15,7.26,3.93,6.54,4.62,6.33,7.26-2.26,16.01-22.4,19.25-30.61,3.21-8.14-1.34-5.17-3.75-3.31Z" fill="#f7a9a0"/><path d="M23.98,59.07l11.35,6.43s7.36-13.03,9.11-19.1-.7-5.94-6.18-1.29-14.28,13.96-14.28,13.96Z" fill="#5a9352"/><path d="M26.37,57.36c4.36,3.07,8.61,5.09,9.46,5.6.04.03.08-.04.03-.06-.86-.46-5.51-3.47-9.46-5.6-.04-.03-.07.04-.04.07h.01Z" fill="#263238"/><path d="M34.6,65.06c.23.09.46.19.68.31,1.09-2.17.89-1.67,2-3.83.55-1.06,1.09-2.12,1.63-3.17.56-1.1,1.07-2.25,1.69-3.32,0,0,.02-.02.04,0,0,0,.02.02,0,.04-.36,1.05-.85,2.05-1.31,3.06.1-.16.21-.32.31-.47.25-.34.5-.67.72-1.03.03-.06.13,0,.09.04-.21.34-.4.69-.59,1.05s-.39.69-.6,1.05-.42.64-.65.96l-.08.11c-.3.63-.59,1.25-.9,1.88-1.09,2.18-2.22,3.89-2.25,3.88-.29-.14-.56-.3-.82-.48-.03-.03,0-.07.03-.07Z" fill="#263238"/><path d="M68.42,78.7c-3.36-.49-5.27-6.74-9-16.69-.65-1.75,8.03-11.74,9.21-10.14,1.49,2.03,5.42,13.26,5.82,16.31.77,6.03-2.09,11.1-6.02,10.52h-.01Z" fill="#f7a9a0"/><path d="M63.24,72.08c-.77-1.63-1.45-3.29-2.12-4.95-.63-1.68-1.34-3.34-1.71-5.11.53,1.71,1.25,3.36,1.9,5.04.57,1.48,1.4,3.55,1.93,5.03h0Z" fill="#263238"/><path d="M71.73,59.09c-.47-3.42-1.43-8.18-2.65-9.18-1.28-1.05-5.93-4.55-7.28-5.02s-7.33-2.74-8.43-2.11c-.88.51.16,2.82,3.01,3.94,2.51.97,3.79,1.88,4.51,2.19s2.5,2.69,2.02,3.74c-.28.62-2.08,1.34-3.19.84s-1.39-2.72-2.67-3.76-3.52-.92-3.65-.31.61.89,1.76,2.96c.74,1.33.79,4.51,2.47,6.8.84,1.15,2.31,4.2,2.31,4.2l11.8-4.29h-.01Z" fill="#f7a9a0"/><path d="M55.86,48.78c-.41-.06-.8-.24-1.12-.51-.2-.19-.3-.47-.26-.74,0-.1.04-.2.11-.27.02,0,0-.04-.02-.02-.03.05-.07.09-.1.14-.03.04-.05.08-.06.13-.03.09-.05.18-.05.28,0,.21.09.41.22.57.32.38.81.48,1.28.46,0,0,.02,0,.02-.02s0-.02-.02-.02Z" fill="#263238"/><path d="M69.08,49.91c-1.08-1.71-3.86-4.78-6.61-5.84-1.86-.71-8.26,2.4-8.07,3.62s1.28,1.23,2.9,1.05c.59-.07,3.71-1.19,4.24-.53.76.94,1.73,4.16,1.73,4.16l5.82-2.45h-.01Z" fill="#f7a9a0"/><path d="M54.56,47.22c.79-1.31,2.53-2.01,4.26-2.56.03,0,.04.03.02.04-.44.14-3.26,1.44-4.26,2.54,0,0-.03,0-.02-.02Z" fill="#263238"/><path d="M69.08,49.91c-1.08-1.71-3.86-4.78-6.61-5.84-1.86-.71-6.92,3.27-6.74,4.49s1.76,1.32,3.49.72c.56-.19,2.44-1.52,2.97-.86.76.94,2.63,3.28,2.63,3.28,0,0,4.26-1.79,4.26-1.79Z" fill="#f7a9a0"/><path d="M63.75,50.25c-.17-.27-.23-.36-.42-.63s-.36-.53-.56-.78c-.15-.23-.35-.44-.57-.6-.23-.13-.5-.19-.77-.15-.6.06-1.15.44-1.66.73-.57.33-1.75.86-2.66.76-.25,0-.49-.08-.71-.19-.17-.08-.32-.19-.43-.34-.39-.66.1-1.43.6-1.96.93-1,2.19-1.73,3.41-2.33.3-.15.6-.28.91-.42.34-.18.71-.29,1.1-.31.63,0,1.66.63,1.98.84.03,0,.04-.03.02-.04-.39-.24-1.34-1.03-2.36-.98-.37.06-.73.18-1.06.36-.35.15-.7.31-1.05.49-.67.33-1.32.71-1.94,1.14-.58.42-1.19.89-1.58,1.49-.34.52-.44,1.25-.11,1.81.28.46.87.57,1.14.61s.54.04.8,0c.59-.13,1.17-.3,1.74-.51.55-.21,1.05-.59,1.61-.76.27-.09.57-.07.82.05.23.16.44.34.61.56.38.37.72.78,1.02,1.22.09.1.17.06.1-.05h.02Z" fill="#263238"/><path d="M69.89,51.4c-.4-.81-1.07-4.15-1.71-5.18s-3.59-4.57-4.96-4.42c-1.73.19.07,3.31.97,4.6s.75,3.46.75,3.46l4.95,1.53h0Z" fill="#f7a9a0"/><path d="M62.93,44.26c.32.42.61.85.88,1.29.29.4.55.83.77,1.27.19.45.3.93.33,1.42.02.24.03.48.03.72s-.02.53-.01.79c0,.03-.04.03-.04,0-.03-.48-.09-.96-.19-1.43-.09-.49-.23-.97-.43-1.43-.4-.91-1-1.71-1.4-2.61-.02-.03.04-.06.06-.03h0Z" fill="#263238"/><path d="M64.92,50.22c.04,1.24-.52,2.42-1.12,3.47-.42.7-.99,1.3-1.41,2-.63,1.04-1.01,2.22-1.11,3.43,0-1.66.58-3.27,1.64-4.55.51-.63.94-1.32,1.29-2.05.34-.73.66-1.49.71-2.3h0Z" fill="#263238"/><path d="M52.58,45.45c-.05.53-.12,1.06-.23,1.59-.08.48-.2.94-.37,1.4-.32.82-.94,1.57-1.88,1.79-.89.17-1.81-.03-2.56-.55-.79-.52-1.4-1.25-1.96-1.97-.35-.44-.68-.9-.98-1.37-.15-.24-.31-.47-.46-.72s-.27-.49-.43-.73c0-.02-.05,0-.04,0,.31.56,1.22,2.31,1.53,2.75.56.79,1.17,1.6,1.99,2.19.78.59,1.76.86,2.73.74.95-.15,1.76-.78,2.13-1.67.21-.52.35-1.07.41-1.63.08-.61.12-1.23.14-1.85,0,0-.02,0-.02,0h0Z" fill="#263238"/><path d="M49.33,48.68c-2.07-.06-4.62-3.92-5.3-6.67-.04-.19,2.4-6.61,2.75-7.93.07-.27,7.77,4.22,7.77,4.22,0,0-1.55,2.56-2.15,4.86-.05.19-1.06,5.58-3.06,5.52h0Z" fill="#f7a9a0"/><path d="M54.54,38.29s-1.55,2.56-2.15,4.87c0,.05-.08.38-.19.87-3.85-1.41-5.72-4.5-6.58-6.59.52-1.46,1.01-2.82,1.15-3.36.08-.27,7.77,4.22,7.77,4.22h0Z" fill="#263238"/><path d="M44.26,30.7s-.52,1.96-.91,2.57-2.11.84-2.11.84c0,0,1.53,1.15,2.05,1.19s1.71-.97,1.71-.97c0,0-1.35,1.77-2.09,1.66-.45-.07,1.05.42,1.05.42.51.12,1.04.05,1.5-.19.69-.41-1.19-5.51-1.19-5.51h0Z" fill="#263238"/><path d="M47.12,24.85c-1.7,2.69-2.47,11.59-.9,14.06,2.28,3.57,7.17,5.19,10.5,2.19,3.23-2.91,4.02-14.53,2.16-16.89-2.75-3.46-9.25-3.33-11.76.64Z" fill="#f7a9a0"/><path d="M53.68,30.88c-.26.02-.53.03-.79.03-.31,0-.55.05-.82-.12-.14-.12-.19-.32-.12-.49.18-.34.55-.45.92-.47.37-.04.74.06,1.05.28.31.22.13.72-.23.77h0Z" fill="#263238"/><path d="M53.24,32.81s-.05.02-.05.05c-.07.6-.26,1.27-.84,1.39-.02,0-.02.03,0,.03.68,0,.92-.89.89-1.47Z" fill="#263238"/><path d="M52.8,32.1c-.95-.21-1.32,1.69-.44,1.9s1.23-1.71.44-1.9Z" fill="#263238"/><path d="M56.66,33.38s.04.04.04.06c-.13.59-.19,1.29.31,1.58.02,0,0,.04,0,.03-.64-.22-.56-1.14-.33-1.68h-.01Z" fill="#263238"/><path d="M57.31,32.87c.97.11.67,2.04-.22,1.93s-.58-2.03.22-1.93Z" fill="#263238"/><path d="M58.24,31.89c-.25-.1-.49-.22-.72-.35-.28-.13-.51-.21-.67-.49-.07-.17-.02-.37.12-.49.32-.23.7-.14,1.03,0,.35.14.63.4.79.74.1.22,0,.48-.22.58-.1.05-.22.05-.33.01Z" fill="#263238"/><path d="M50.81,37.04c.3.43.57,1,1.12,1.16.58.1,1.17.08,1.74-.07.03,0,.06,0,.06.04,0,.02,0,.04-.02.05-.57.53-1.39.71-2.12.46-.61-.3-.98-.93-.95-1.61,0-.09.12-.09.16-.04h0Z" fill="#263238"/><path d="M52.72,35.97c.21.53.64.95,1.17,1.16.23.09.47.15.72.17.05,0,.09,0,.14,0h.13c.07,0,.13-.04.14-.11h0v-.06h0v-.05c.1-.45.19-1.15.19-1.15.15.11.93.66.96.42.26-1.99.56-4.21.4-6.25,0-.03-.04-.05-.07-.04-.02,0-.04.02-.04.04-.33,1.9-.32,3.85-.63,5.78-.25-.16-.66-.43-.89-.47-.07,0-.15,1.36-.21,1.56v.02c-.79-.05-1.32-.39-1.96-1.05-.03-.05-.08-.02-.05.03h0Z" fill="#263238"/><path d="M45.23,31.86c1.6.08,3.98-4.56,3.98-4.56l-.63,2.78s1.43-.53,2.36-1.56c.66-.73.95-1.98,1.01-2.61,0,0,1.05,2.24,2.74,3.34.63.42,5.68,2.09,5.78,1.77.32-.93-.55-4.94-1.53-6.24-1.13-1.49-2.89-3.15-6.29-3.01s-4.85,1.81-5.8,3.16-2.22,6.89-1.63,6.92h.01Z" fill="#263238"/><path d="M47.06,32.73s-1.21-3.25-2.63-2.9-1.03,4.72.3,5.64c.66.54,1.64.43,2.17-.23,0-.02.03-.03.04-.05l.13-2.47h-.01Z" fill="#f7a9a0"/><path d="M44.58,31.08s-.04.03-.02.04c.92.69,1.21,1.78,1.33,2.87-.21-.46-.57-.78-1.17-.55-.03,0-.02.06,0,.06.4-.02.77.21.93.59.12.3.21.62.27.94.02.1.21.1.2-.02v-.03c.37-1.3-.17-3.4-1.55-3.9Z" fill="#263238"/><path d="M56.7,22.58c-.86-.82-1.84-1.5-2.91-2.04-1.2-.57-5.24-1.58-6.45-1.11s-2.7,4.11-2.9,4.64-1.06,3.9-.13,5.09,2.9-4.35,5.4-5.56,7-1.02,7-1.02h0Z" fill="#5a9352"/><path d="M56.7,22.58s-4.5-.22-7,1-4.47,6.76-5.4,5.58c-.41-.52-.49-1.13-.42-2.07.79-1.55,2.3-3.86,4.24-5.15,1.82-1.22,4.29-1.31,6.72-.8.66.43,1.28.91,1.86,1.45h0Z" isolation="isolate" opacity=".1"/><path d="M43.52,32.58c.6-1.45,3.44-4.93,5.79-6.68s7.45-1.53,8.09-1.28c1.55.63,1.93,1.28,2.23,1.22s-.93-1.79-1.29-2.21-1.34-1.44-2.04-1.66-5.08-1.21-7.22.09-6.02,5.64-6.05,7.07c0,.34.34.68.32,1.17-.02.64-.12,1.35-.08,1.81.03.37.2.59.25.46h0Z" fill="#5a9352"/><path d="M50.02,25c-.29-.34-.55-.71-.78-1.1-.24-.39-.43-.8-.57-1.23,0-.01-.02-.02-.03-.02s-.02.02-.02.03h0c.08.46.23.91.45,1.32.23.41.53.77.88,1.06.03.03.09-.03.06-.06h0Z" fill="#263238"/><path d="M44,31.09c0-.12-.03-.24-.06-.36-.02-.14-.03-.28-.02-.42.05-.26.08-.52.07-.78-.04-.21-.1-.41-.18-.61-.11-.22-.14-.46-.09-.7,0-.01,0-.03-.02-.03s-.03,0-.03.02c-.15.45.04.87.11,1.32.05.28-.05.56-.05.84-.02.27.04.54.19.76.02.03.08.01.08-.03h0Z" fill="#263238"/><path d="M45.05,29.66c-.09-.21-.18-.42-.25-.64-.06-.22-.1-.44-.13-.66-.03-.22-.04-.44-.07-.66-.03-.26-.09-.52-.11-.78,0-.03-.05-.02-.05,0,.02.27,0,.55,0,.82,0,.24.04.47.08.7.04.22.1.44.17.65.07.22.19.41.34.58h.02Z" fill="#263238"/><path d="M46.08,28.38c-.22-.37-.39-.77-.5-1.18-.1-.42-.18-.82-.26-1.24,0-.03-.05-.03-.05,0,0,.44.04.87.14,1.3.05.21.13.41.22.6.12.2.26.38.42.55,0,.02.06,0,.04-.03h-.01Z" fill="#263238"/><path d="M47.13,27.19c-.12-.16-.21-.34-.26-.53-.07-.21-.14-.42-.21-.63s-.12-.42-.18-.61c-.07-.2-.1-.41-.09-.63,0-.01,0-.03-.03-.03,0,0-.02,0-.02.01-.05.21-.06.43-.02.64.03.23.08.47.14.69.07.22.15.44.24.65.07.2.2.37.37.49.04,0,.08-.03.05-.07v.02Z" fill="#263238"/><path d="M48.14,25.56c-.09-.18-.18-.36-.26-.55s-.15-.38-.21-.57-.14-.4-.21-.61c0-.01,0-.03-.03-.03s-.03.01-.03.03h0c0,.21.05.42.09.63.05.2.12.4.2.6.08.19.16.38.27.56.09.19.22.36.37.5.02.01.04,0,.05,0v-.03c-.07-.18-.15-.36-.26-.53h.02Z" fill="#263238"/><path d="M51.44,24.53c-.09-.23-.17-.46-.28-.68-.11-.23-.23-.45-.37-.66-.25-.42-.55-.81-.89-1.16-.02-.02-.06,0-.04.03.5.84,1.05,1.65,1.53,2.5,0,.01.03.01.04,0,0,0,0-.02,0-.03Z" fill="#263238"/><path d="M52.76,23.56c-.09-.23-.21-.45-.34-.65-.31-.41-.66-.79-1.05-1.13-.03-.02-.06,0-.04.03.3.38.61.77.88,1.17.14.2.27.4.38.61.11.21.18.45.29.66,0,.01.02.01.03,0h0c0-.24-.06-.47-.16-.69h0Z" fill="#263238"/><path d="M54.19,23.39c-.08-.22-.18-.43-.31-.63-.23-.38-.53-.72-.87-1-.02-.02-.05.02-.04.04.29.34.55.7.78,1.08.11.19.22.39.32.59s.18.42.3.6c0,.02.03,0,.03-.01-.05-.23-.12-.46-.22-.67h.01Z" fill="#263238"/><path d="M55.34,22.95c-.11-.18-.24-.35-.36-.52-.11-.17-.26-.33-.42-.46-.03-.02-.05.01-.04.04.22.34.44.69.66,1.05.18.33.32.68.42,1.05,0,0,.02.01.03,0h0c.02-.4-.08-.8-.29-1.14v-.02Z" fill="#263238"/><path d="M56.53,23.08c-.2-.36-.47-.69-.79-.95-.02-.02-.06.02-.04.04.27.29.5.62.68.98.18.36.32.73.42,1.12,0,.02.04.02.04,0,0-.42-.12-.82-.31-1.19Z" fill="#263238"/><path d="M57.77,24.23c0-.09-.03-.18-.05-.27-.05-.18-.11-.35-.2-.51-.18-.33-.39-.64-.63-.93-.02-.03-.06,0-.04.03.23.29.42.6.57.93.07.16.14.33.19.5.03.08.04.17.06.26,0,.09.03.17.05.25,0,.01.02.02.03.02,0,0,0,0,.02-.02,0-.09,0-.17,0-.26Z" fill="#263238"/><path d="M58.64,24.61c-.05-.14-.1-.28-.16-.42s-.13-.27-.21-.4c-.08-.13-.17-.26-.24-.4,0-.01-.02-.02-.03-.02s-.02.02-.02.03h0c.08.14.15.28.21.43.06.14.12.27.18.4s.11.27.17.41.1.29.17.42c0,.01.02.02.03.01,0,0,0-.01,0-.02-.02-.15-.06-.3-.11-.45h0Z" fill="#263238"/><path d="M54.17,50.2l-5.04,14.77c-.2.43,0,.81.43.84l7.78.64c.49,0,.93-.27,1.15-.71l5.04-14.76c.2-.43,0-.81-.43-.84l-7.78-.64c-.48,0-.93.26-1.15.7Z" fill="#37474f"/><path d="M55.1,50.27l-5.04,14.77c-.21.43,0,.81.42.84l7.78.64c.49,0,.93-.27,1.15-.71l5.04-14.77c.2-.43,0-.81-.43-.84l-7.78-.64c-.48,0-.92.28-1.14.71Z" fill="#455a64"/><path d="M57.17,51.13c-.04.36-.37.63-.73.59s-.63-.37-.59-.73.36-.63.73-.59c.36.04.63.36.59.73h0Z" fill="#263238"/><path d="M22.31,78.17c3.1,1.05,7.55-.66,19.31-6.2,1.63-.77-.7-13.7-2.48-12.97-2.24.92-10.74,4.97-11.32,5.35-4.92,3.15-7.62,13.11-5.51,13.83h0Z" fill="#f7a9a0"/><path d="M34.77,61.93s3.73-3.55,6.27-4.81c3.39-1.69,7.02-1.75,8.54-1.67,3.18.14,10.76,2.67,10.41,4.99-.32,2.09-7.94-.89-7.94-.89,0,0,8.27,1.76,7.43,4.21-.84,2.45-9.48-1.53-9.48-1.53,0,0,8.46,2,7.19,4.39-.96,1.8-8.99-1.35-8.99-1.35,0,0,7.26,1.77,6.35,3.67-1,2.09-8.6-.34-8.6-.34-3.12,4.44-6.42,5.28-8.83,5.59-.6.07-2.34-12.25-2.34-12.25h-.01Z" fill="#f7a9a0"/><path d="M49.23,58.74c.98.17,1.97.34,2.93.6s1.91.55,2.85.89c2.29.85,3.59,1.74,3.5,1.69-2.04-1.09-5.46-2.07-6.42-2.32s-1.9-.56-2.86-.82c-.02,0,0-.04,0-.04h0Z" fill="#263238"/><path d="M48.23,62.19c1.24.27,2.48.5,3.71.83s2.35.74,3.55,1.15c.09.03.04.07-.05.04-1.21-.36-2.36-.6-3.58-.95s-2.42-.74-3.65-1.05c-.02,0,0-.03,0-.03h.02Z" fill="#263238"/><path d="M46.85,65c1.92.32,3.76.99,5.58,1.7.09.04.02.08-.07.05-1.84-.6-3.28-1.08-5.52-1.67-.04-.02-.04-.09,0-.07h0Z" fill="#263238"/><path d="M31.09,62.72c-.88.48-1.76.95-2.63,1.46-.87.51-1.72,1.02-2.38,1.77-.99,1.13-1.84,2.36-2.55,3.69-.24.44-.46.89-.65,1.35.71-2.03,1.84-3.89,3.31-5.45,1.42-1.25,3.19-2.04,4.9-2.82h0Z" fill="#263238"/></g><g id="freepik--speech-bubbles--inject-244"><polygon points="50.41 6.28 50.41 16.76 51.88 16.76 51.88 19.3 54.42 16.76 68.36 16.76 68.36 6.28 50.41 6.28" fill="#fff"/><path d="M50.4,6.28l.02,5.25c.02,1.75.02,3.49.02,5.23l-.05-.06h1.23v2.6l-.09-.05,2.04-2.55.02-.02h.02c3.3,0,7.95-.03,11.21-.03l-.08.1.02-10.47.06.08c-3.6,0-10.84-.05-14.44-.08h0ZM50.4,6.28c3.59-.03,10.84-.07,14.44-.08h.06v.08l.02,10.47v.1h-.08c-3.24.01-7.92-.02-11.21-.02l.04-.02-2.05,2.53-.1.12v-2.7l.05.06h-1.22c0-3.07.04-7.42.05-10.53h0Z" fill="#263238"/><polygon points="61.16 19.79 61.16 31.1 62.75 31.1 62.75 33.84 65.49 31.1 87.32 31.1 87.32 19.79 61.16 19.79" fill="#fff"/><path d="M61.16,19.79l.03,5.67c.02,1.88.03,3.76.03,5.64l-.06-.06h1.65v2.81l-.11-.05,2.74-2.75.02-.02h.03c6.43-.01,15.49-.04,21.83-.02l-.1.1.02-11.31.08.08c-6.52,0-19.64-.05-26.16-.08h0ZM61.16,19.79c6.52-.03,19.64-.07,26.16-.08h.09v.08l.02,11.31v.1h-.1c-6.3.02-15.43-.02-21.83-.02l.05-.02-2.75,2.74-.12.11v-2.91l.06.06h-1.65c-.02-3.31.05-8.01.06-11.37h.01Z" fill="#263238"/><rect x="71.64" y="22.2" width="11.74" height=".54" fill="#a6a6a6"/><path d="M71.64,24.19c4.24-.14,8.51-.14,12.75,0-4.24.14-8.51.14-12.75,0Z" fill="#ebebeb"/><path d="M71.64,25.61c4.47-.14,8.96-.14,13.43,0-4.47.14-8.96.14-13.43,0Z" fill="#ebebeb"/><path d="M71.64,27.03c3.18-.14,6.38-.14,9.56,0-3.18.14-6.38.14-9.56,0Z" fill="#ebebeb"/><path d="M71.64,28.46c3.18-.14,6.38-.14,9.56,0-3.18.14-6.38.14-9.56,0Z" fill="#ebebeb"/><polygon points="38.82 23.68 38.82 34.99 37.23 34.99 37.23 37.73 34.49 34.99 12.66 34.99 12.66 23.68 38.82 23.68" fill="#fff"/><path d="M38.82,23.68c0,3.37.07,8.04.06,11.37h-1.65l.06-.06v2.91l-.12-.12-2.75-2.74.05.02c-6.43,0-15.49.04-21.83.02h-.08v-11.48h.08c6.52.01,19.65.04,26.16.08h.02ZM38.82,23.68c-6.52.04-19.65.07-26.16.08l.08-.08.02,11.31-.1-.1c6.3,0,15.43,0,21.83.02h.03l.02.02,2.74,2.75-.11.05v-2.81h1.65l-.06.06c0-1.88,0-3.76.03-5.64l.03-5.67h0Z" fill="#263238"/><rect x="14.91" y="26.08" width="6.45" height="6.45" fill="#5a9352"/><path d="M15.78,28.11c-.08.4.18.79.59.87.41.08.79-.18.87-.59s-.18-.79-.59-.87c-.1-.02-.19-.02-.29,0-.3.06-.53.29-.59.59h.01Z" fill="#fff" isolation="isolate" opacity=".2"/><polygon points="16.7 32.53 21.36 32.53 19.03 29.7 16.7 32.53" fill="#fff" isolation="isolate" opacity=".2"/><polygon points="14.91 32.53 18.76 32.53 16.83 30.69 14.91 32.53" fill="#5a9352"/><polygon points="14.91 32.53 18.76 32.53 16.83 30.69 14.91 32.53" fill="#fff" isolation="isolate" opacity=".5"/><rect x="23.37" y="26.08" width="11.74" height=".54" fill="#a6a6a6"/><path d="M23.37,28.07c4.24-.14,8.51-.14,12.75,0-4.24.14-8.51.14-12.75,0Z" fill="#ebebeb"/><path d="M23.37,29.5c4.47-.14,8.96-.14,13.43,0-4.47.14-8.96.14-13.43,0Z" fill="#ebebeb"/><path d="M23.37,30.92c3.18-.14,6.38-.14,9.56,0-3.18.14-6.38.14-9.56,0Z" fill="#ebebeb"/><path d="M23.37,32.35c3.18-.14,6.38-.14,9.56,0-3.18.14-6.38.14-9.56,0Z" fill="#ebebeb"/><polygon points="63.26 34.77 63.26 46.08 64.85 46.08 64.85 48.82 67.59 46.08 73.97 46.08 73.97 34.77 63.26 34.77" fill="#fff"/><path d="M63.26,34.77l.06,11.31-.06-.06h1.66v2.81l-.12-.05,2.73-2.75.03-.03h6.41l-.1.09c0-2.82,0-8.49.02-11.31l.08.08-10.71-.08h0ZM63.26,34.77c2.72-.03,8.08-.07,10.79-.08,0,2.86.02,8.53.02,11.39v.09h-6.48l.06-.03-2.75,2.73-.13.13v-2.93l.07.07h-1.65v-.06l.06-11.31h.01Z" fill="#263238"/><polygon points="42.24 8.06 42.24 19.37 40.65 19.37 40.65 22.11 37.91 19.37 31.53 19.37 31.53 8.06 42.24 8.06" fill="#fff"/><path d="M42.24,8.06l.06,11.31v.06h-1.65l.07-.07v2.93l-.13-.13-2.74-2.73.06.03h-6.48s0-.09,0-.09c0-2.86,0-8.53.02-11.39,2.72.02,8.08.05,10.79.08ZM42.24,8.06l-10.71.08.08-.08c.01,2.82.02,8.49.02,11.31l-.1-.1s6.38.01,6.41.01l.03.03,2.74,2.75-.13.06v-2.81h1.67c-.17.38.05-11.33,0-11.25h0Z" fill="#263238"/></g><path d="M68.49,28.59h-.13c-.09-.01-.21-.06-.28-.12l-2.08-2.3-.29.28-2.29-2.3c-.3-.38-.32-.89-.2-1.34.02-.06.1-.33.12-.36.02-.02.21-.02.25,0l5.22,5.22c.31.31.12.86-.31.92h-.01Z" fill="#5a9352"/><path d="M63.34,28.59h0c-.06-.02-.12-.02-.18-.04-.12-.04-.25-.16-.3-.28-.03-.06-.03-.12-.05-.19v-.08c0-.11.07-.23.14-.31l1.75-1.74.76.75v.03l-1.81,1.78c-.09.05-.19.08-.29.09h-.01Z" fill="#5a9352"/><path d="M67.67,22.44s.02,0,.03.01c.02.01.2.19.21.21,0,.01.02.02.01.03l-.96.96v.02s.22.23.24.24l.98-.97.26.25-.97.98.25.25.99-.96.25.25-1.34,1.34c-.2.17-.43.19-.68.23l-.82-.82c.04-.11.03-.23.06-.34.03-.14.12-.29.22-.4l1.29-1.29h-.02Z" fill="#5a9352"/><path d="M36.6,9.48c1.96-.12,3.55,1.56,3.34,3.5-.16,1.47-1.44,2.97-2.51,3.91-.13.11-.41.37-.54.44-.06.03-.09.04-.15,0-.08-.04-.26-.2-.34-.27-1.27-1.05-2.83-2.85-2.75-4.6.08-1.59,1.37-2.89,2.96-2.99ZM36.62,10.27c-1.84.14-2.82,2.26-1.73,3.76s3.28,1.24,4.05-.37-.5-3.52-2.32-3.39Z" fill="#5a9352"/><path d="M37.52,11.19c.42-.05.7.34.73.73.02.34-.13.6-.39.79v1.17c-.1.29-.5.25-.53-.06-.03-.36.03-.75,0-1.12-.32-.23-.45-.56-.37-.95.06-.27.27-.54.56-.57Z" fill="#5a9352"/><path d="M35.62,11.98h.26v-.7c0-.11.26-.11.26,0v.7h.26v-.7c0-.09.23-.15.26,0v1.15c-.03.19-.19.34-.39.34v1.11c-.07.28-.45.28-.52,0v-1.11c-.2,0-.36-.15-.4-.34v-1.15c.04-.15.26-.09.26,0v.7Z" fill="#5a9352"/><path d="M64.57,41.77v-.11c.05-.05.09-.12.17-.11h7.86c.15.11.11.2.04.33-.22.4-.69.67-1.14.69h-5.76c-.51-.04-.94-.34-1.17-.79Z" fill="#5a9352"/><path d="M65.26,41.22c.13-1.54,1.38-2.83,2.91-3.02-.16-.33.09-.71.45-.72s.63.38.47.72c1.53.19,2.77,1.48,2.91,3.02h-6.73ZM68.44,38.84c-.66,0-1.45.45-1.87.94-.15.18-.47.67-.5.9-.02.16.18.25.29.14.32-.85.97-1.44,1.87-1.61.08-.02.17-.01.25-.02.22-.04.2-.34-.04-.34Z" fill="#5a9352"/><path d="M61.02,11.15v.39l-.06.38c-.15.78-.65,1.53-1.33,1.99-.05.03-.15.11-.2.11-.08,0-.14-.09-.08-.15,1.8-1.08,2-3.51.34-4.82s-4.34-.59-4.98,1.42c-.69,2.16,1.28,4.21,3.6,3.79.25-.05.48-.13.72-.22.08.01.12.09.07.15-.04.05-.37.15-.44.17-.16.05-.34.08-.51.11-.08,0-.16,0-.24.03-.14,0-.28,0-.41,0-2.94-.16-4.2-3.67-1.98-5.53,2.06-1.72,5.34-.4,5.5,2.18Z" fill="#5a9352"/><path d="M55.59,10.69s.08,0,.11.03l1.49,1.42c.07.11-.13.24-.22.29-.96.56-2.11-.37-1.67-1.37.04-.09.2-.35.29-.37ZM56.14,11.45l-.52-.49c-.17.2-.21.44-.18.69l.71-.2ZM56.18,11.66l-.68.2c.1.2.27.37.49.44l.19-.64ZM56.2,12.37c.2.02.42,0,.6-.1.02-.01.13-.07.12-.09l-.52-.48-.21.67Z" fill="#5a9352"/><path d="M57.12,12.78c.22-.01.22.06.21.25-.02.31-.17.48-.51.51-.23.02-.32.02-.3-.22.02-.39.2-.53.6-.55ZM57.11,13c-.08,0-.24.02-.29.07-.03.03-.09.25-.08.26.26.01.36-.1.37-.34Z" fill="#5a9352"/><path d="M60.31,11.31v.19s-.01.09-.02.14c-.1.6-.59,1.08-1.2,1.16-.02.22-.18.42-.39.48-.02,0-.08.02-.09.02h-.65v-.25s.02-.09.03-.11c.03-.1.1-.18.17-.25-.07-.06-.14-.14-.17-.23,0-.03-.03-.1-.03-.12v-.25h.63c.25,0,.42.22.49.44,0,0,0,.02.01.01.05-.02.14-.09.18-.13.09-.11.12-.23.12-.37.43-.17.75-.52.87-.97l.05.24Z" fill="#5a9352"/><path d="M58.48,9.39v.24h-1.9s-.06.03-.07.03c-.14.09-.1.3.06.35h1.26c.21.31.29.68.22,1.04-.04.2-.14.39-.25.55-.59.04-1.11-.41-1.24-.97h-.38v-.24h.34l-.02-.14c-.32-.09-.43-.49-.19-.73.05-.05.18-.13.26-.13h1.91ZM57.66,10.42h-.24v.24h.24v-.24Z" fill="#5a9352"/><path d="M58.09,11.6c.1-.17.17-.36.21-.55.05-.3.02-.59-.09-.86-.02-.06-.06-.12-.08-.18h.92s.02.02.02.02l.03.33c0,.45-.12.9-.42,1.24h-.59Z" fill="#5a9352"/><path d="M58.98,11.61c.1-.15.18-.31.24-.49.11-.33.14-.69.09-1.03,0-.02,0-.01.02-.01.16.04.39.18.51.29.05.04.23.24.24.29,0,.02,0,.11,0,.14-.04.47-.33.85-.76,1.02-.08-.11-.19-.18-.33-.2Z" fill="#5a9352"/></svg>