<?xml version="1.0" encoding="UTF-8"?><svg id="Layer_1" xmlns="http://www.w3.org/2000/svg" xmlns:xlink="http://www.w3.org/1999/xlink" viewBox="0 0 100 100"><defs><linearGradient id="linear-gradient" x1="87.77" y1="-1.63" x2="83.45" y2="13.22" gradientTransform="translate(6.7 3.3)" gradientUnits="userSpaceOnUse"><stop offset="0" stop-color="#ff1738"/><stop offset="1" stop-color="red"/></linearGradient><linearGradient id="linear-gradient-2" x1="80.09" y1="12.01" x2="89.05" y2="6.84" gradientTransform="translate(6.7 3.3)" gradientUnits="userSpaceOnUse"><stop offset="0" stop-color="#ff5559"/><stop offset="1" stop-color="#ffaaac"/></linearGradient><linearGradient id="linear-gradient-3" x1="141.25" y1="4.31" x2="133.92" y2="29.45" gradientTransform="translate(-53.09 28.69) rotate(.96)" xlink:href="#linear-gradient"/><linearGradient id="linear-gradient-4" x1="128.24" y1="27.4" x2="143.41" y2="18.64" gradientTransform="translate(-53.09 28.69) rotate(.96)" xlink:href="#linear-gradient-2"/><linearGradient id="linear-gradient-5" x1="99.67" y1="-31" x2="93.94" y2="-11.35" gradientTransform="translate(-53.09 28.69) rotate(.96)" xlink:href="#linear-gradient"/><linearGradient id="linear-gradient-6" x1="89.5" y1="-12.96" x2="101.36" y2="-19.8" gradientTransform="translate(-53.09 28.69) rotate(.96)" xlink:href="#linear-gradient-2"/><linearGradient id="linear-gradient-7" x1="90.06" y1="-5.24" x2="86.73" y2="6.18" gradientTransform="translate(-53.09 28.69) rotate(.96)" xlink:href="#linear-gradient"/><linearGradient id="linear-gradient-8" x1="84.15" y1="5.25" x2="91.04" y2="1.27" gradientTransform="translate(-53.09 28.69) rotate(.96)" xlink:href="#linear-gradient-2"/><linearGradient id="linear-gradient-9" x1="72.65" y1="1.86" x2="67.21" y2="20.54" gradientTransform="translate(-53.09 28.69) rotate(.96)" xlink:href="#linear-gradient"/><linearGradient id="linear-gradient-10" x1="62.99" y1="19.01" x2="74.25" y2="12.51" gradientTransform="translate(-53.09 28.69) rotate(.96)" xlink:href="#linear-gradient-2"/><linearGradient id="linear-gradient-11" x1="70.74" y1="-25.27" x2="66.26" y2="-9.9" gradientTransform="translate(-53.09 28.69) rotate(.96)" xlink:href="#linear-gradient"/><linearGradient id="linear-gradient-12" x1="62.79" y1="-11.15" x2="72.06" y2="-16.51" gradientTransform="translate(-53.09 28.69) rotate(.96)" xlink:href="#linear-gradient-2"/></defs><g id="freepik--Character--inject-191"><path d="M59.05,35.96l.57.41c.2.15.4.28.6.41.4.27.81.54,1.22.78s.82.47,1.23.68c.38.19.78.36,1.19.49-.09-.02-.18-.03-.28-.01-.06,0-.11.02-.16.05-.06.03-.04.03-.01.02.13-.09.24-.19.34-.31.29-.34.55-.71.77-1.09.25-.4.5-.82.73-1.26s.47-.88.68-1.31l.02-.03c.25-.48.83-.67,1.32-.43.42.21.63.69.5,1.14-.3,1.04-.67,2.05-1.12,3.03-.24.53-.53,1.03-.86,1.51-.21.3-.45.57-.72.81-.2.17-.42.31-.66.41-.17.07-.35.12-.53.14-.22.02-.44.01-.65-.04-.58-.13-1.15-.32-1.7-.55-.52-.21-1.02-.45-1.51-.71-.48-.26-.95-.53-1.41-.81-.23-.14-.45-.29-.68-.44s-.44-.3-.68-.48c-.62-.57-.66-1.53-.09-2.15.48-.52,1.25-.64,1.87-.29l.03.02Z" fill="#5a9352"/><path d="M59.05,35.96l.57.41c.2.15.4.28.6.41.4.27.81.54,1.22.78s.82.47,1.23.68c.38.19.78.36,1.19.49-.09-.02-.18-.03-.28-.01-.06,0-.11.02-.16.05-.06.03-.04.03-.01.02.13-.09.24-.19.34-.31.29-.34.55-.71.77-1.09.25-.4.5-.82.73-1.26s.47-.88.68-1.31l.02-.03c.25-.48.83-.67,1.32-.43.42.21.63.69.5,1.14-.3,1.04-.67,2.05-1.12,3.03-.24.53-.53,1.03-.86,1.51-.21.3-.45.57-.72.81-.2.17-.42.31-.66.41-.17.07-.35.12-.53.14-.22.02-.44.01-.65-.04-.58-.13-1.15-.32-1.7-.55-.52-.21-1.02-.45-1.51-.71-.48-.26-.95-.53-1.41-.81-.23-.14-.45-.29-.68-.44s-.44-.3-.68-.48c-.62-.57-.66-1.53-.09-2.15.48-.52,1.25-.64,1.87-.29l.03.02Z" isolation="isolate" opacity=".2"/><path d="M66.48,34.41l.59-1,1.13,1.22c-.16.35-.46.63-.82.77-.17.06-.35.03-.49-.07l-.22-.14c-.26-.17-.35-.52-.19-.79Z" fill="#ffb573"/><path d="M68.68,32.82l.25.15c.28.17.36.54.19.81-.03.05-.07.09-.11.13l-.8.71-1.13-1.22.99-.6c.19-.12.43-.12.62,0Z" fill="#ffb573"/><polygon points="45.2 93 46.92 93.05 47.57 89.06 45.85 89.01 45.2 93" fill="#ffb573"/><path d="M47.2,92.57l-1.93-.24c-.07-.01-.13.04-.14.1l-.29,1.51c-.02.17.09.32.26.34.67.07,1,.07,1.84.18.52.07,1.88.39,2.6.3s.61-.8.3-.82c-1.4-.12-1.93-.79-2.37-1.23-.08-.08-.17-.13-.28-.14Z" fill="#263238"/><polygon points="45.85 89.01 47.57 89.06 47.24 91.12 45.51 91.07 45.85 89.01" isolation="isolate" opacity=".2"/><path d="M55.27,50.75s-1.5,14.27-2.5,19.12c-1.09,5.31-4.61,20.84-4.61,20.84l-3.15-.23s1.73-16.07,3.14-21.27c0-5.4,1.31-20.54,1.31-20.54l5.82,2.08Z" fill="#263238"/><path d="M50.24,55.58c-.03-1.12-.63-1.48-1.23-1.46-.22,2.69-.45,5.98-.63,8.95,1.06-1.71,1.93-4.39,1.86-7.49Z" isolation="isolate" opacity=".3"/><polygon points="44.91 90.51 48.29 90.76 48.68 89.49 44.79 89.45 44.91 90.51" fill="#fff"/><polygon points="27.72 79.62 28.81 80.97 32.06 78.62 30.97 77.28 27.72 79.62" fill="#ffb573"/><path d="M29.04,80.97l-.97-1.68c-.03-.06-.11-.08-.17-.05l-1.38.68c-.15.08-.2.27-.12.41.35.58.54.84.97,1.58.26.45.95,1.76,1.31,2.39s.97.25.87-.04c-.44-1.34-.56-2.37-.47-2.98.02-.11,0-.22-.05-.32Z" fill="#263238"/><polygon points="30.97 77.28 32.06 78.62 30.38 79.83 29.29 78.49 30.97 77.28" isolation="isolate" opacity=".2"/><path d="M52.13,49.53s-4.24,12.14-6.17,16.7c-2.11,4.99-14.72,13.86-14.72,13.86l-1.99-2.46s8.57-8.59,11.75-12.66c1.76-5.55,5.53-17.45,5.53-17.45l5.6,2Z" fill="#263238"/><polygon points="29.16 77.54 31.32 80.19 32.37 79.58 29.85 76.77 29.16 77.54" fill="#fff"/><path d="M55.25,50.84l-8.74-3.31c.22-.8,1.36-3.14,2.38-6.41.77-2.41,1.33-4.89,1.67-7.4h0c.04-.3.31-.51.6-.47,0,0,.02,0,.03,0,.16.03.36.07.57.11.55.11,1.24.27,1.89.47,1.26.37,2.49.81,3.7,1.32.4.18.8.39,1.18.62.23.13.44.28.62.46.14.11.23.27.24.45,0,1.25-1.25,6.09-4.15,14.17Z" fill="#f0f0f0"/><path d="M57.18,35.06c-.98-.64-.94-1.37-.6-2.08.08-.17.18-.34.28-.51l-.95-1.6-.7-1.17c-.15,1.29-.62,3.57-1.71,4.07.59.84,1.44,1.47,2.42,1.78,1.61.5,1.25-.5,1.25-.5Z" fill="#ffb573"/><polygon points="55.87 35.53 55.86 35.12 54.77 35.34 55.87 35.53" fill="#e0e0e0"/><polygon points="55.87 35.53 56.08 35.2 56.78 36.06 55.87 35.53" fill="#e0e0e0"/><path d="M53.66,33.58c.66.61,1.4,1.13,2.2,1.55-.44.27-.85.97-1.01,1.56-.35-.25-1.76-2.57-1.96-3.2l.77.1Z" fill="#fff"/><path d="M56.98,34.81c-.26.22-.57.35-.91.39.23.34.44,1.23.44,1.74.41-.27,1.04-1.19,1.14-1.61l-.67-.52Z" fill="#fff"/><path d="M57.01,34.78s.95.46,1.79.97c.71.44,1.04,1.29.82,2.09-1.04,3.67-2.44,7.23-3.02,9.21-.62,2.11-1.47,4.76-1.47,4.76l-1.48.35s3.71-14.21,3.37-17.39Z" isolation="isolate" opacity=".3"/><path d="M53.64,33.41s-1.28-.17-2.39-.22c-.81-.04-1.53.5-1.73,1.28-.57,2.24-.98,6.52-1.56,8.18-.71,2.08-1.68,6.14-1.68,6.14l5.06,2.92s5.11-15.71,2.29-18.31Z" isolation="isolate" opacity=".3"/><path d="M53.64,33.41s-1.28-.17-2.39-.22c-.81-.04-1.53.5-1.73,1.28-.57,2.24-1.34,6.42-1.91,8.08-.72,2.08-2.24,5.62-2.24,5.62l6.39,2.99s4.71-15.16,1.88-17.76Z" fill="#5a9352"/><path d="M53.64,33.41s-1.28-.17-2.39-.22c-.81-.04-1.53.5-1.73,1.28-.57,2.24-1.34,6.42-1.91,8.08-.72,2.08-2.24,5.62-2.24,5.62l6.39,2.99s4.71-15.16,1.88-17.76Z" isolation="isolate" opacity=".2"/><path d="M57.01,34.78s.95.46,1.79.97c.71.44,1.04,1.29.82,2.09-1.04,3.67-1.86,7.51-2.27,9.54-.44,2.15-.89,4.12-.89,4.12l-2.39.32s3.29-13.86,2.95-17.04Z" fill="#5a9352"/><path d="M57.01,34.78s.95.46,1.79.97c.71.44,1.04,1.29.82,2.09-1.04,3.67-1.86,7.51-2.27,9.54-.44,2.15-.89,4.12-.89,4.12l-2.39.32s3.29-13.86,2.95-17.04Z" isolation="isolate" opacity=".2"/><path d="M56.86,32.47c-.1.17-.2.34-.28.51-.47-.28-.94-1.06-.83-1.59.04-.18.09-.35.17-.52l.95,1.6Z" isolation="isolate" opacity=".2"/><path d="M58.2,25.88c1.16.15,1.58,1.71.94,2.74-1.05-1.52-.94-2.74-.94-2.74Z" fill="#263238"/><path d="M54.6,28.76c.39,1.67.53,2.67,1.54,3.42.98.75,2.38.57,3.13-.41.28-.36.44-.8.46-1.25.11-1.56-.55-4.04-2.32-4.49-1.2-.34-2.45.36-2.79,1.56-.11.38-.11.78-.02,1.17Z" fill="#ffb573"/><path d="M55.12,30.25c1.01.03.85-1.64.41-2.27,1.4.22,3.71-1.02,3.95-2.31.34-1.87-2.52-1.87-3.45-1.28.4.03.6.37.5.54,0,0-1.38-.42-2.27.07.39.14.8.71-.68.88-1.41.17-.98,1.59-.27,1.56-.38.58-.83,1.9.02,2.46s1.44,1.29,1.25,1.59c.3-.01.93-.37.54-1.25Z" fill="#263238"/><path d="M53.51,27.31c-.67.07-1.06.59-1.09,1.31.29-.49.66-.93,1.09-1.31Z" fill="#263238"/><path d="M54.2,30.27c.17.34.47.61.83.74.47.17.72-.25.6-.71-.11-.42-.49-1.02-.97-.99s-.67.53-.46.95Z" fill="#ffb573"/><path d="M57.25,28.89c.02.14.12.24.2.22s.14-.13.12-.27-.12-.24-.21-.22-.14.13-.12.27Z" fill="#263238"/><path d="M58.81,28.68c.02.14.11.24.2.22s.14-.13.12-.27-.12-.24-.21-.22-.14.13-.12.27Z" fill="#263238"/><path d="M58.33,28.81c.24.4.52.76.86,1.09-.2.26-.64.22-.64.22l-.22-1.31Z" fill="#ed893e"/><path d="M58.05,30.55c-.33,0-.64-.12-.87-.35-.01-.02-.01-.04,0-.06.02-.02.04-.02.06,0,0,0,0,0,0,0,.26.25.61.36.96.31.02,0,.05,0,.05.03,0,.02,0,.05-.03.05,0,0-.01,0-.02,0-.05,0-.11.01-.16.02Z" fill="#263238"/><path d="M57.61,31.01c-.26-.19-.43-.49-.47-.81,0-.02.02-.04.04-.04.02,0,.04.01.04.03,0,0,0,0,0,0,.05.35.26.66.57.84.02.01.03.03.02.05,0,0,0,0,0,0-.01.02-.04.03-.06.02,0,0,0,0,0,0-.05-.03-.09-.06-.13-.09Z" fill="#263238"/><path d="M56.68,28.45s-.03,0-.04,0c-.04-.02-.06-.07-.04-.11,0,0,0,0,0,0,.12-.24.34-.4.61-.44.04,0,.08.03.09.07,0,0,0,0,0,0,0,.04-.03.08-.07.09,0,0,0,0,0,0-.2.03-.38.15-.47.34-.01.03-.04.05-.07.05Z" fill="#263238"/><path d="M59.39,28.05s-.05-.01-.07-.03c-.12-.18-.31-.29-.52-.3-.05,0-.08-.05-.07-.09,0-.04.03-.06.07-.07h0c.26.01.51.15.65.37.03.04.02.09-.02.11,0,0,0,0,0,0-.01,0-.03.02-.04.02Z" fill="#263238"/><path d="M51.71,36.01c-.44.35-.89.75-1.33,1.13s-.88.78-1.31,1.19c-.84.78-1.63,1.61-2.35,2.49l-.25.32-.03.04s.01-.02.02-.03c.01-.02.02-.05.03-.08.02-.04.03-.09.03-.14,0-.07-.01-.07,0-.04,0,.07.03.13.06.19.09.21.2.4.33.58.15.22.31.43.48.64.35.44.74.85,1.15,1.26s.85.83,1.26,1.21l.03.02c.4.36.43.98.07,1.38-.32.36-.86.43-1.26.16-1.09-.69-2.11-1.49-3.05-2.38-.24-.24-.47-.49-.7-.76-.25-.3-.47-.62-.65-.96-.11-.21-.21-.43-.28-.65-.09-.3-.13-.62-.1-.94.02-.2.06-.39.13-.58.04-.1.08-.19.13-.28l.08-.13.03-.05.28-.42c.75-1.05,1.59-2.04,2.51-2.96.44-.45.89-.89,1.36-1.32s.92-.84,1.43-1.26c.72-.43,1.66-.19,2.09.53.34.58.27,1.31-.19,1.81h-.01Z" fill="#5a9352"/><path d="M51.71,36.01c-.44.35-.89.75-1.33,1.13s-.88.78-1.31,1.19c-.84.78-1.63,1.61-2.35,2.49l-.25.32-.03.04s.01-.02.02-.03c.01-.02.02-.05.03-.08.02-.04.03-.09.03-.14,0-.07-.01-.07,0-.04,0,.07.03.13.06.19.09.21.2.4.33.58.15.22.31.43.48.64.35.44.74.85,1.15,1.26s.85.83,1.26,1.21l.03.02c.4.36.43.98.07,1.38-.32.36-.86.43-1.26.16-1.09-.69-2.11-1.49-3.05-2.38-.24-.24-.47-.49-.7-.76-.25-.3-.47-.62-.65-.96-.11-.21-.21-.43-.28-.65-.09-.3-.13-.62-.1-.94.02-.2.06-.39.13-.58.04-.1.08-.19.13-.28l.08-.13.03-.05.28-.42c.75-1.05,1.59-2.04,2.51-2.96.44-.45.89-.89,1.36-1.32s.92-.84,1.43-1.26c.72-.43,1.66-.19,2.09.53.34.58.27,1.31-.19,1.81h-.01Z" isolation="isolate" opacity=".2"/><path d="M50.13,45.15l1.48.91-1.89,1.08s-1.26-.94-.72-1.55l.63-.44c.15-.1.35-.1.5,0Z" fill="#ffb573"/><path d="M51.69,47.71l-.81.48c-.23.14-.53.06-.67-.17,0,0,0,0,0-.01l-.48-.87,1.89-1.08.3,1.09c.06.22-.03.45-.22.56Z" fill="#ffb573"/></g><g id="freepik--Megaphone--inject-191"><path d="M65.85,32.34l2-.39c-.55.97.26,1.9.99,2.48.35.28.1.78-.44.87l-1.31.26c-1.58.32-1.25-3.22-1.25-3.22Z" fill="#5a9352"/><path d="M65.05,32.49l4.6-.89c1.49-.3,2.47-1.75,2.18-3.24h0c-.3-1.49-1.75-2.46-3.24-2.18l-4.59.9c-1.49.3-2.46,1.75-2.18,3.24h0c.31,1.49,1.75,2.45,3.24,2.16Z" fill="#5a9352"/><path d="M65.05,32.49l4.6-.89c1.49-.3,2.47-1.75,2.18-3.24h0c-.3-1.49-1.75-2.46-3.24-2.18l-4.59.9c-1.49.3-2.46,1.75-2.18,3.24h0c.31,1.49,1.75,2.45,3.24,2.16Z" fill="#fff" isolation="isolate" opacity=".3"/><path d="M77.56,33.43l-7.83-.1c-.68.13-2.39-8.66-1.72-8.79l7.21-3.05,2.35,11.94Z" fill="#5a9352"/><path d="M75.76,27.58c.65,3.3,1.45,5.92,1.8,5.85s.1-2.8-.55-6.09c-.65-3.29-1.45-5.92-1.8-5.85s-.1,2.79.55,6.09Z" fill="#5a9352"/><path d="M75.76,27.58c.65,3.3,1.45,5.92,1.8,5.85s.1-2.8-.55-6.09c-.65-3.29-1.45-5.92-1.8-5.85s-.1,2.79.55,6.09Z" isolation="isolate" opacity=".3"/><path d="M78.71,27.17c-.16-.81-1.96-1.14-2.34-1.06s-.57.79-.41,1.6.6,1.4.98,1.33,1.92-1.06,1.77-1.86Z" fill="#5a9352"/><rect x="80.59" y="25.9" width="10.33" height=".23" transform="translate(-3.05 14.03) rotate(-9.19)" fill="#5a9352"/><rect x="79.09" y="22.43" width="5.49" height=".23" transform="translate(4.93 58.49) rotate(-40.45)" fill="#5a9352"/><rect x="86.54" y="31.27" width=".23" height="1.63" transform="translate(27.56 103.11) rotate(-70.56)" fill="#5a9352"/><rect x="82.16" y="28.52" width=".23" height="4.09" transform="translate(27.13 98.85) rotate(-71.46)" fill="#5a9352"/></g><path d="M91.23,6.65c-3.4,0-6.15,2.76-6.15,6.15s2.75,6.15,6.15,6.15,6.15-2.76,6.15-6.15c0-3.4-2.75-6.15-6.15-6.15ZM91.27,17.9c-2.86,0-5.17-2.32-5.17-5.17s2.32-5.17,5.17-5.17,5.17,2.32,5.17,5.17-2.32,5.17-5.17,5.17Z" fill="url(#linear-gradient)" opacity=".91"/><path d="M91.27,7.55c-2.86,0-5.17,2.32-5.17,5.17s2.32,5.17,5.17,5.17,5.17-2.32,5.17-5.17-2.32-5.17-5.17-5.17ZM91.84,13.29c-.18.27-.35.54-.53.81-.04.06-.05.06-.09,0-.46-.7-.92-1.4-1.38-2.1,0-.02-.02-.03-.04-.04v3.36h-1.14v-5.21h1.19s.05.02.08.04c.64,1.02,1.27,2.05,1.91,3.06.02.03.02.05,0,.08ZM92.11,12.89s-.07.1-.11.16c-.02-.02-.02-.03-.03-.04-.18-.29-.36-.58-.54-.87-.02-.03-.02-.05,0-.08.04-.05.07-.11.11-.16h0s.02.04.03.05c.18.29.36.58.54.87.02.03.02.05,0,.08ZM93.87,15.33h-1.14v-3.39s0,0,0,0c-.16.24-.31.47-.46.71-.02-.02-.02-.03-.03-.04-.18-.29-.36-.59-.55-.88-.02-.03-.02-.05,0-.09.31-.49.62-1,.93-1.49.02-.03.04-.04.08-.04h1.18v5.21Z" fill="url(#linear-gradient-2)" opacity=".91"/><path d="M91.84,13.29c-.18.27-.35.54-.53.81-.04.06-.05.06-.09,0-.46-.7-.92-1.4-1.38-2.1,0-.02-.02-.03-.04-.04v3.36h-1.14v-5.21h1.19s.05.02.08.04c.64,1.02,1.27,2.05,1.91,3.06.02.03.02.05,0,.08Z" fill="red"/><path d="M93.87,10.12v5.21h-1.14v-3.39s0,0,0,0c-.16.24-.31.47-.46.71-.02-.02-.02-.03-.03-.04-.18-.29-.36-.59-.55-.88-.02-.03-.02-.05,0-.09.31-.49.62-1,.93-1.49.02-.03.04-.04.08-.04h1.18Z" fill="red"/><path d="M92.11,12.89s-.07.1-.11.16c-.02-.02-.02-.03-.03-.04-.18-.29-.36-.58-.54-.87-.02-.03-.02-.05,0-.08.04-.05.07-.11.11-.16h0s.02.04.03.05c.18.29.36.58.54.87.02.03.02.05,0,.08Z" fill="red"/><path d="M82.44,43.7c-5.75-.1-10.49,4.49-10.59,10.24-.1,5.75,4.49,10.49,10.24,10.59s10.49-4.49,10.59-10.24c.1-5.75-4.49-10.49-10.24-10.59ZM82.18,62.74c-4.84-.08-8.69-4.07-8.61-8.9s4.07-8.69,8.9-8.61,8.69,4.07,8.61,8.9c-.08,4.84-4.07,8.69-8.9,8.61Z" fill="url(#linear-gradient-3)" opacity=".85"/><path d="M82.48,45.23c-4.84-.08-8.82,3.77-8.9,8.61s3.77,8.82,8.61,8.9,8.82-3.77,8.9-8.61c.08-4.84-3.77-8.82-8.61-8.9ZM83.28,54.97c-.31.45-.61.9-.93,1.35-.07.1-.08.1-.15,0-.76-1.19-1.51-2.4-2.28-3.59-.01-.03-.04-.05-.07-.07l-.1,5.69-1.92-.03.15-8.82,2.02.03s.09.03.13.07c1.05,1.74,2.09,3.5,3.14,5.24.02.05.02.08,0,.13ZM83.75,54.29c-.07.08-.12.17-.19.26-.03-.03-.04-.05-.05-.07-.3-.5-.59-.99-.89-1.49-.02-.05-.02-.08,0-.13.07-.09.12-.18.19-.27h0s.03.07.05.08c.3.5.59.99.89,1.49.03.05.03.09,0,.13ZM86.66,58.48l-1.92-.03.1-5.73h-.01c-.27.39-.53.79-.8,1.18-.03-.03-.04-.05-.05-.07-.3-.5-.59-1.01-.9-1.5-.04-.05-.03-.09,0-.15.53-.83,1.08-1.67,1.61-2.49.03-.05.07-.07.13-.06l2,.03-.15,8.82Z" fill="url(#linear-gradient-4)" opacity=".85"/><path d="M83.28,54.97c-.31.45-.61.9-.93,1.35-.07.1-.08.1-.15,0-.76-1.19-1.51-2.4-2.28-3.59-.01-.03-.04-.05-.07-.07l-.1,5.69-1.92-.03.15-8.82,2.02.03s.09.03.13.07c1.05,1.74,2.09,3.5,3.14,5.24.02.05.02.08,0,.13Z" fill="red" opacity=".85"/><path d="M86.81,49.66l-.15,8.82-1.92-.03.1-5.73h-.01c-.27.39-.53.79-.8,1.18-.03-.03-.04-.05-.05-.07-.3-.5-.59-1.01-.9-1.5-.04-.05-.03-.09,0-.15.53-.83,1.08-1.67,1.61-2.49.03-.05.07-.07.13-.06l2,.03Z" fill="red" opacity=".85"/><path d="M83.75,54.29c-.07.08-.12.17-.19.26-.03-.03-.04-.05-.05-.07-.3-.5-.59-.99-.89-1.49-.02-.05-.02-.08,0-.13.07-.09.12-.18.19-.27h0s.03.07.05.08c.3.5.59.99.89,1.49.03.05.03.09,0,.13Z" fill="red" opacity=".85"/><path d="M42.69,5.88c-4.49-.08-8.2,3.51-8.27,8s3.51,8.2,8,8.27,8.2-3.51,8.27-8c.08-4.49-3.51-8.2-8-8.27ZM42.49,20.75c-3.78-.06-6.79-3.18-6.73-6.96s3.18-6.79,6.96-6.73,6.79,3.18,6.73,6.96c-.06,3.78-3.18,6.79-6.96,6.73Z" fill="url(#linear-gradient-5)" opacity=".91"/><path d="M42.72,7.07c-3.78-.06-6.89,2.95-6.96,6.73s2.95,6.89,6.73,6.96,6.89-2.95,6.96-6.73c.06-3.78-2.95-6.89-6.73-6.96ZM43.35,14.68c-.24.35-.48.71-.72,1.06-.05.08-.06.08-.11,0-.6-.93-1.18-1.88-1.78-2.81,0-.02-.03-.04-.05-.05l-.07,4.45-1.5-.03.12-6.89,1.58.03s.07.02.1.05c.82,1.36,1.63,2.73,2.45,4.09.02.04.02.06,0,.1ZM43.71,14.15c-.05.06-.1.13-.15.21-.02-.02-.03-.04-.04-.05-.23-.39-.46-.78-.7-1.16-.02-.04-.02-.06,0-.1.05-.07.1-.14.15-.21h0s.02.05.04.06c.23.39.46.78.7,1.16.02.04.02.07,0,.1ZM45.99,17.42l-1.5-.03.08-4.48h-.01c-.21.31-.41.61-.63.92-.02-.02-.03-.04-.04-.05-.23-.39-.46-.79-.71-1.17-.03-.04-.02-.07,0-.11.42-.65.84-1.3,1.26-1.95.02-.04.05-.05.1-.05l1.56.03-.12,6.89Z" fill="url(#linear-gradient-6)" opacity=".91"/><path d="M43.35,14.68c-.24.35-.48.71-.72,1.06-.05.08-.06.08-.11,0-.6-.93-1.18-1.88-1.78-2.81,0-.02-.03-.04-.05-.05l-.07,4.45-1.5-.03.12-6.89,1.58.03s.07.02.1.05c.82,1.36,1.63,2.73,2.45,4.09.02.04.02.06,0,.1Z" fill="red"/><path d="M46.1,10.53l-.12,6.89-1.5-.03.08-4.48h-.01c-.21.31-.41.61-.63.92-.02-.02-.03-.04-.04-.05-.23-.39-.46-.79-.71-1.17-.03-.04-.02-.07,0-.11.42-.65.84-1.3,1.26-1.95.02-.04.05-.05.1-.05l1.56.03Z" fill="red"/><path d="M43.71,14.15c-.05.06-.1.13-.15.21-.02-.02-.03-.04-.04-.05-.23-.39-.46-.78-.7-1.16-.02-.04-.02-.06,0-.1.05-.07.1-.14.15-.21h0s.02.05.04.06c.23.39.46.78.7,1.16.02.04.02.07,0,.1Z" fill="red"/><path d="M34.49,28.75c-2.61-.04-4.77,2.04-4.81,4.65s2.04,4.77,4.65,4.81,4.77-2.04,4.81-4.65-2.04-4.77-4.65-4.81ZM34.38,37.39c-2.2-.04-3.95-1.85-3.91-4.04s1.85-3.95,4.04-3.91,3.95,1.85,3.91,4.04-1.85,3.95-4.04,3.91Z" fill="url(#linear-gradient-7)" opacity=".91"/><path d="M34.51,29.44c-2.2-.04-4.01,1.71-4.04,3.91s1.71,4.01,3.91,4.04,4.01-1.71,4.04-3.91-1.71-4.01-3.91-4.04ZM34.88,33.86c-.14.2-.28.41-.42.61-.03.05-.04.05-.07,0-.35-.54-.69-1.09-1.03-1.63,0-.01-.02-.02-.03-.03l-.04,2.58h-.87s.07-4.02.07-4.02l.92.02s.04.01.06.03c.47.79.95,1.59,1.42,2.38.01.02.01.04,0,.06ZM35.09,33.55s-.06.08-.09.12c-.01-.01-.02-.02-.02-.03-.13-.23-.27-.45-.4-.68-.01-.02-.01-.04,0-.06.03-.04.06-.08.09-.12h0s.01.03.02.04c.14.23.27.45.4.68.01.02.01.04,0,.06ZM36.41,35.46h-.87s.04-2.62.04-2.62h0c-.12.18-.24.36-.36.54-.01-.01-.02-.02-.02-.03-.14-.23-.27-.46-.41-.68-.02-.02-.01-.04,0-.07.24-.38.49-.76.73-1.13.01-.02.03-.03.06-.03l.91.02-.07,4.01Z" fill="url(#linear-gradient-8)" opacity=".91"/><path d="M34.88,33.86c-.14.2-.28.41-.42.61-.03.05-.04.05-.07,0-.35-.54-.69-1.09-1.03-1.63,0-.01-.02-.02-.03-.03l-.04,2.58h-.87s.07-4.02.07-4.02l.92.02s.04.01.06.03c.47.79.95,1.59,1.42,2.38.01.02.01.04,0,.06Z" fill="red" opacity=".91"/><path d="M36.48,31.45l-.07,4.01h-.87s.04-2.62.04-2.62h0c-.12.18-.24.36-.36.54-.01-.01-.02-.02-.02-.03-.14-.23-.27-.46-.41-.68-.02-.02-.01-.04,0-.07.24-.38.49-.76.73-1.13.01-.02.03-.03.06-.03l.91.02Z" fill="red" opacity=".91"/><path d="M35.09,33.55s-.06.08-.09.12c-.01-.01-.02-.02-.02-.03-.13-.23-.27-.45-.4-.68-.01-.02-.01-.04,0-.06.03-.04.06-.08.09-.12h0s.01.03.02.04c.14.23.27.45.4.68.01.02.01.04,0,.06Z" fill="red" opacity=".91"/><path d="M15.34,37.96c-4.27-.07-7.79,3.33-7.86,7.61s3.33,7.79,7.6,7.87c4.27.07,7.79-3.33,7.87-7.61.07-4.27-3.33-7.79-7.61-7.87ZM15.15,52.1c-3.59-.06-6.45-3.02-6.39-6.61s3.02-6.45,6.61-6.39,6.45,3.02,6.39,6.61c-.06,3.59-3.02,6.45-6.61,6.39Z" fill="url(#linear-gradient-9)" opacity=".91"/><path d="M15.37,39.09c-3.59-.06-6.55,2.8-6.61,6.39s2.8,6.55,6.39,6.61,6.55-2.8,6.61-6.39c.06-3.59-2.8-6.55-6.39-6.61ZM15.96,46.33c-.23.33-.46.67-.69,1-.05.08-.06.08-.11,0-.57-.89-1.12-1.78-1.69-2.67,0-.02-.03-.04-.05-.05l-.07,4.23-1.43-.02.11-6.55,1.5.03s.07.02.1.05c.78,1.29,1.55,2.6,2.33,3.89.02.04.02.06,0,.1ZM16.31,45.82c-.05.06-.09.13-.14.19-.02-.02-.03-.04-.04-.05-.22-.37-.44-.74-.66-1.11-.02-.04-.02-.06,0-.1.05-.07.09-.14.14-.2h0s.02.05.04.06c.22.37.44.74.66,1.11.02.04.02.07,0,.1ZM18.47,48.93l-1.43-.02.07-4.26h0c-.2.29-.39.58-.6.88-.02-.02-.03-.04-.04-.05-.22-.37-.44-.75-.67-1.12-.03-.04-.02-.07,0-.11.4-.61.8-1.24,1.19-1.85.02-.04.05-.05.1-.05l1.49.03-.11,6.55Z" fill="url(#linear-gradient-10)" opacity=".91"/><path d="M15.96,46.33c-.23.33-.46.67-.69,1-.05.08-.06.08-.11,0-.57-.89-1.12-1.78-1.69-2.67,0-.02-.03-.04-.05-.05l-.07,4.23-1.43-.02.11-6.55,1.5.03s.07.02.1.05c.78,1.29,1.55,2.6,2.33,3.89.02.04.02.06,0,.1Z" fill="red" opacity=".91"/><path d="M18.58,42.38l-.11,6.55-1.43-.02.07-4.26h0c-.2.29-.39.58-.6.88-.02-.02-.03-.04-.04-.05-.22-.37-.44-.75-.67-1.12-.03-.04-.02-.07,0-.11.4-.61.8-1.24,1.19-1.85.02-.04.05-.05.1-.05l1.49.03Z" fill="red" opacity=".91"/><path d="M16.31,45.82c-.05.06-.09.13-.14.19-.02-.02-.03-.04-.04-.05-.22-.37-.44-.74-.66-1.11-.02-.04-.02-.06,0-.1.05-.07.09-.14.14-.2h0s.02.05.04.06c.22.37.44.74.66,1.11.02.04.02.07,0,.1Z" fill="red" opacity=".91"/><path d="M14.63,9.7c-3.52-.06-6.41,2.74-6.47,6.26s2.74,6.42,6.26,6.47,6.42-2.74,6.47-6.26c.06-3.52-2.74-6.42-6.26-6.47ZM14.47,21.34c-2.96-.05-5.31-2.49-5.26-5.44s2.49-5.31,5.44-5.26,5.31,2.49,5.26,5.44c-.05,2.96-2.49,5.31-5.44,5.26Z" fill="url(#linear-gradient-11)" opacity=".91"/><path d="M14.65,10.64c-2.96-.05-5.39,2.31-5.44,5.26s2.31,5.39,5.26,5.44,5.39-2.31,5.44-5.26c.05-2.96-2.31-5.39-5.26-5.44ZM15.14,16.59c-.19.27-.37.55-.57.83-.04.06-.05.06-.09,0-.47-.73-.92-1.47-1.39-2.2,0-.02-.02-.03-.04-.04l-.06,3.48-1.18-.02.09-5.39,1.23.02s.06.02.08.04c.64,1.07,1.28,2.14,1.92,3.2.02.03.01.05,0,.08ZM15.43,16.18s-.07.1-.12.16c-.02-.02-.02-.03-.03-.04-.18-.3-.36-.61-.54-.91-.02-.03-.01-.05,0-.08.04-.06.08-.11.12-.17h0s.02.04.03.05c.18.3.36.61.54.91.02.03.02.06,0,.08ZM17.21,18.74l-1.18-.02.06-3.5h0c-.17.24-.32.48-.49.72-.02-.02-.02-.03-.03-.04-.18-.3-.36-.61-.55-.92-.02-.03-.02-.06,0-.09.33-.51.66-1.02.98-1.52.02-.03.04-.04.08-.04l1.22.02-.09,5.39Z" fill="url(#linear-gradient-12)" opacity=".91"/><path d="M15.14,16.59c-.19.27-.37.55-.57.83-.04.06-.05.06-.09,0-.47-.73-.92-1.47-1.39-2.2,0-.02-.02-.03-.04-.04l-.06,3.48-1.18-.02.09-5.39,1.23.02s.06.02.08.04c.64,1.07,1.28,2.14,1.92,3.2.02.03.01.05,0,.08Z" fill="red" opacity=".91"/><path d="M17.3,13.34l-.09,5.39-1.18-.02.06-3.5h0c-.17.24-.32.48-.49.72-.02-.02-.02-.03-.03-.04-.18-.3-.36-.61-.55-.92-.02-.03-.02-.06,0-.09.33-.51.66-1.02.98-1.52.02-.03.04-.04.08-.04l1.22.02Z" fill="red" opacity=".91"/><path d="M15.43,16.18s-.07.1-.12.16c-.02-.02-.02-.03-.03-.04-.18-.3-.36-.61-.54-.91-.02-.03-.01-.05,0-.08.04-.06.08-.11.12-.17h0s.02.04.03.05c.18.3.36.61.54.91.02.03.02.06,0,.08Z" fill="red" opacity=".91"/></svg>